<svg id="svg" version="1.1" xmlns="http://www.w3.org/2000/svg" xmlns:xlink="http://www.w3.org/1999/xlink" width="400" height="400" viewBox="0, 0, 400,400"><g id="svgg"><path id="path0" d="M0.000 59.465 L 0.000 94.930 17.700 94.666 C 27.435 94.520,72.435 94.401,117.700 94.400 L 200.000 94.400 200.000 59.200 L 200.000 24.000 100.000 24.000 L 0.000 24.000 0.000 59.465 M211.781 47.705 C 211.675 47.983,211.635 53.428,211.694 59.805 L 211.800 71.400 230.600 71.511 C 240.940 71.572,249.805 71.524,250.300 71.403 L 251.200 71.185 251.200 59.435 C 251.200 49.090,251.124 47.657,250.567 47.443 C 249.209 46.922,211.985 47.173,211.781 47.705 M274.183 47.701 C 274.075 47.981,274.035 53.428,274.094 59.805 L 274.200 71.400 293.800 71.400 L 313.400 71.400 313.400 59.400 L 313.400 47.400 293.889 47.296 C 278.396 47.214,274.338 47.297,274.183 47.701 M336.900 47.463 C 336.516 47.619,336.400 50.394,336.400 59.426 L 336.400 71.185 337.300 71.403 C 337.795 71.523,346.840 71.572,357.400 71.511 L 376.600 71.400 376.600 59.400 L 376.600 47.400 357.000 47.330 C 346.220 47.291,337.175 47.351,336.900 47.463 M63.200 59.404 L 63.200 71.207 43.300 71.104 L 23.400 71.000 23.294 59.805 C 23.235 53.648,23.274 48.383,23.381 48.105 C 23.534 47.708,27.794 47.600,43.387 47.600 L 63.200 47.600 63.200 59.404 M125.800 59.400 L 125.800 71.000 106.300 71.104 L 86.800 71.208 86.800 59.400 L 86.800 47.592 106.300 47.696 L 125.800 47.800 125.800 59.400 M188.200 59.400 L 188.200 71.000 168.800 71.000 L 149.400 71.000 149.294 59.805 C 149.235 53.648,149.275 48.382,149.382 48.102 C 149.538 47.697,153.546 47.614,168.889 47.696 L 188.200 47.800 188.200 59.400 M250.600 59.400 L 250.600 71.000 231.300 71.104 L 212.000 71.208 212.000 59.400 L 212.000 47.592 231.300 47.696 L 250.600 47.800 250.600 59.400 M313.000 59.400 L 313.000 71.000 293.700 71.104 L 274.400 71.208 274.400 59.400 L 274.400 47.592 293.700 47.696 L 313.000 47.800 313.000 59.400 M376.400 59.404 L 376.400 71.208 356.700 71.104 L 337.000 71.000 336.894 59.805 C 336.835 53.648,336.874 48.383,336.981 48.105 C 337.134 47.708,341.355 47.600,356.787 47.600 L 376.400 47.600 376.400 59.404 M0.000 340.535 L 0.000 376.000 100.000 376.000 L 200.000 376.000 200.000 340.800 L 200.000 305.600 117.700 305.600 C 72.435 305.599,27.435 305.480,17.700 305.334 L 0.000 305.070 0.000 340.535 M63.200 340.604 L 63.200 352.407 43.300 352.304 L 23.400 352.200 23.294 341.005 C 23.235 334.848,23.274 329.583,23.381 329.305 C 23.534 328.908,27.794 328.800,43.387 328.800 L 63.200 328.800 63.200 340.604 M125.800 340.600 L 125.800 352.200 106.300 352.304 L 86.800 352.408 86.800 340.600 L 86.800 328.792 106.300 328.896 L 125.800 329.000 125.800 340.600 M188.200 340.600 L 188.200 352.200 168.700 352.304 L 149.200 352.408 149.200 340.870 C 149.200 334.525,149.322 329.212,149.470 329.063 C 149.619 328.914,158.394 328.839,168.970 328.896 L 188.200 329.000 188.200 340.600 M211.600 340.804 L 211.600 352.808 231.300 352.704 L 251.000 352.600 251.106 340.700 L 251.212 328.800 231.406 328.800 L 211.600 328.800 211.600 340.804 M274.094 340.700 L 274.200 352.600 293.800 352.600 L 313.400 352.600 313.506 340.700 L 313.612 328.800 293.800 328.800 L 273.988 328.800 274.094 340.700 M336.494 340.700 L 336.600 352.600 356.600 352.600 L 376.600 352.600 376.706 340.700 L 376.812 328.800 356.600 328.800 L 336.388 328.800 336.494 340.700 M250.706 340.700 L 250.600 352.200 231.300 352.304 L 212.000 352.408 212.000 340.804 L 212.000 329.200 231.406 329.200 L 250.812 329.200 250.706 340.700 M313.200 340.800 L 313.200 352.400 293.800 352.400 L 274.400 352.400 274.400 340.800 L 274.400 329.200 293.800 329.200 L 313.200 329.200 313.200 340.800 M376.400 340.804 L 376.400 352.408 356.700 352.304 L 337.000 352.200 336.894 340.700 L 336.788 329.200 356.594 329.200 L 376.400 329.200 376.400 340.804 " stroke="none" fill="#444c84" fill-rule="evenodd"></path><path id="path1" d="M23.381 48.105 C 23.274 48.383,23.235 53.648,23.294 59.805 L 23.400 71.000 43.300 71.104 L 63.200 71.207 63.200 59.404 L 63.200 47.600 43.387 47.600 C 27.794 47.600,23.534 47.708,23.381 48.105 M86.800 59.400 L 86.800 71.208 106.300 71.104 L 125.800 71.000 125.800 59.400 L 125.800 47.800 106.300 47.696 L 86.800 47.592 86.800 59.400 M149.382 48.102 C 149.275 48.382,149.235 53.648,149.294 59.805 L 149.400 71.000 168.800 71.000 L 188.200 71.000 188.200 59.400 L 188.200 47.800 168.889 47.696 C 153.546 47.614,149.538 47.697,149.382 48.102 M212.000 59.400 L 212.000 71.208 231.300 71.104 L 250.600 71.000 250.600 59.400 L 250.600 47.800 231.300 47.696 L 212.000 47.592 212.000 59.400 M274.400 59.400 L 274.400 71.208 293.700 71.104 L 313.000 71.000 313.000 59.400 L 313.000 47.800 293.700 47.696 L 274.400 47.592 274.400 59.400 M336.981 48.105 C 336.874 48.383,336.835 53.648,336.894 59.805 L 337.000 71.000 356.700 71.104 L 376.400 71.208 376.400 59.404 L 376.400 47.600 356.787 47.600 C 341.355 47.600,337.134 47.708,336.981 48.105 M62.800 59.400 L 62.800 70.800 43.200 70.800 L 23.600 70.800 23.600 59.400 L 23.600 48.000 43.200 48.000 L 62.800 48.000 62.800 59.400 M125.600 59.400 L 125.600 70.800 106.400 70.800 L 87.200 70.800 87.200 59.400 L 87.200 48.000 106.400 48.000 L 125.600 48.000 125.600 59.400 M188.000 59.400 L 188.000 70.800 168.800 70.800 L 149.600 70.800 149.600 59.400 L 149.600 48.000 168.800 48.000 L 188.000 48.000 188.000 59.400 M164.955 131.707 C 164.799 131.978,164.815 132.070,164.991 131.912 C 165.166 131.753,165.780 131.949,166.355 132.346 C 167.799 133.345,168.400 133.677,168.400 133.477 C 168.400 132.905,165.209 131.266,164.955 131.707 M168.800 133.746 C 168.800 133.856,169.340 134.330,170.000 134.800 C 170.660 135.270,171.200 135.564,171.200 135.454 C 171.200 135.344,170.660 134.870,170.000 134.400 C 169.340 133.930,168.800 133.636,168.800 133.746 M200.400 155.095 C 200.400 155.484,202.014 156.519,202.251 156.282 C 202.347 156.186,201.969 155.810,201.412 155.445 C 200.856 155.080,200.400 154.922,200.400 155.095 M205.200 158.377 C 205.200 158.610,205.470 158.800,205.800 158.800 C 206.130 158.800,206.400 158.980,206.400 159.200 C 206.400 159.420,206.670 159.600,207.000 159.600 C 207.330 159.600,207.600 159.780,207.600 160.000 C 207.600 160.220,207.802 160.400,208.049 160.400 C 208.711 160.400,207.907 159.544,206.431 158.677 C 205.754 158.280,205.200 158.145,205.200 158.377 M209.762 161.339 C 210.401 161.923,211.064 162.400,211.234 162.400 C 211.404 162.400,211.781 162.635,212.071 162.923 C 212.915 163.757,230.478 175.255,230.649 175.085 C 230.781 174.952,213.170 163.062,209.800 161.010 L 208.600 160.279 209.762 161.339 M239.981 181.596 C 244.909 184.895,248.997 187.537,249.065 187.468 C 249.238 187.296,231.799 175.600,231.369 175.600 C 231.179 175.600,235.054 178.298,239.981 181.596 M250.289 188.430 C 250.778 188.939,251.278 189.255,251.401 189.132 C 251.524 189.009,251.124 188.592,250.512 188.206 L 249.400 187.504 250.289 188.430 M256.200 192.227 C 256.640 192.652,257.495 193.255,258.100 193.568 C 258.705 193.880,259.200 194.285,259.200 194.468 C 259.200 194.650,259.470 194.800,259.800 194.800 C 260.130 194.800,260.400 194.980,260.400 195.200 C 260.400 195.420,260.588 195.600,260.817 195.600 C 261.046 195.600,261.620 195.960,262.092 196.400 C 262.564 196.840,263.187 197.200,263.475 197.200 C 263.764 197.200,264.005 197.335,264.011 197.500 C 264.017 197.665,264.737 198.241,265.611 198.780 C 267.536 199.968,267.564 200.196,265.900 201.182 C 265.185 201.606,264.416 202.098,264.191 202.276 C 262.632 203.508,259.996 205.200,259.635 205.200 C 259.396 205.200,259.200 205.350,259.200 205.532 C 259.200 205.715,258.705 206.120,258.100 206.432 C 257.495 206.745,256.651 207.315,256.225 207.700 C 255.798 208.085,255.228 208.400,254.958 208.400 C 254.688 208.400,254.407 208.558,254.333 208.750 C 254.260 208.943,251.799 210.666,248.864 212.581 C 245.929 214.495,243.634 216.168,243.765 216.299 C 243.896 216.429,244.407 216.180,244.902 215.744 C 245.396 215.309,250.795 211.653,256.900 207.619 C 263.005 203.586,268.000 200.160,268.000 200.006 C 268.000 199.765,260.255 194.459,256.600 192.197 C 255.413 191.462,255.409 191.462,256.200 192.227 M237.000 220.400 C 233.700 222.599,231.201 224.399,231.446 224.399 C 231.691 224.400,232.323 224.085,232.851 223.700 C 233.378 223.315,234.104 222.820,234.464 222.600 C 234.824 222.380,235.956 221.615,236.979 220.900 C 238.003 220.185,239.011 219.600,239.220 219.600 C 239.429 219.600,239.600 219.441,239.600 219.246 C 239.600 219.051,240.205 218.604,240.945 218.253 C 242.073 217.718,243.642 216.399,243.149 216.401 C 243.067 216.401,240.300 218.201,237.000 220.400 M229.429 225.409 C 229.005 225.729,228.738 226.071,228.835 226.169 C 228.932 226.266,229.459 226.002,230.006 225.582 C 230.553 225.161,230.820 224.820,230.600 224.822 C 230.380 224.824,229.853 225.088,229.429 225.409 M227.029 227.009 C 226.605 227.329,226.338 227.671,226.435 227.769 C 226.532 227.866,227.059 227.602,227.606 227.182 C 228.153 226.761,228.420 226.420,228.200 226.422 C 227.980 226.424,227.453 226.688,227.029 227.009 M220.400 231.452 C 217.650 233.320,214.860 235.187,214.200 235.601 C 213.540 236.014,212.809 236.519,212.575 236.722 C 212.341 236.925,211.722 237.320,211.200 237.600 C 210.678 237.880,209.890 238.444,209.450 238.854 C 209.009 239.264,208.428 239.600,208.158 239.600 C 207.888 239.600,207.607 239.750,207.533 239.932 C 207.460 240.115,205.690 241.399,203.600 242.786 C 200.124 245.092,198.055 246.642,199.600 245.784 C 200.573 245.243,225.364 228.735,225.780 228.351 C 227.065 227.164,224.739 228.505,220.400 231.452 M196.687 247.368 C 194.326 249.002,193.764 249.575,195.506 248.572 C 196.850 247.799,199.156 246.023,198.800 246.036 C 198.690 246.041,197.739 246.640,196.687 247.368 M23.381 329.305 C 23.274 329.583,23.235 334.848,23.294 341.005 L 23.400 352.200 43.300 352.304 L 63.200 352.407 63.200 340.604 L 63.200 328.800 43.387 328.800 C 27.794 328.800,23.534 328.908,23.381 329.305 M86.800 340.600 L 86.800 352.408 106.300 352.304 L 125.800 352.200 125.800 340.600 L 125.800 329.000 106.300 328.896 L 86.800 328.792 86.800 340.600 M149.470 329.063 C 149.322 329.212,149.200 334.525,149.200 340.870 L 149.200 352.408 168.700 352.304 L 188.200 352.200 188.200 340.600 L 188.200 329.000 168.970 328.896 C 158.394 328.839,149.619 328.914,149.470 329.063 M62.800 340.600 L 62.800 352.000 43.200 352.000 L 23.600 352.000 23.600 340.600 L 23.600 329.200 43.200 329.200 L 62.800 329.200 62.800 340.600 M125.600 340.600 L 125.600 352.000 106.400 352.000 L 87.200 352.000 87.200 340.600 L 87.200 329.200 106.400 329.200 L 125.600 329.200 125.600 340.600 M188.000 340.600 L 188.000 352.000 168.800 352.000 L 149.600 352.000 149.600 340.600 L 149.600 329.200 168.800 329.200 L 188.000 329.200 188.000 340.600 M212.000 340.804 L 212.000 352.408 231.300 352.304 L 250.600 352.200 250.706 340.700 L 250.812 329.200 231.406 329.200 L 212.000 329.200 212.000 340.804 M274.400 340.800 L 274.400 352.400 293.800 352.400 L 313.200 352.400 313.200 340.800 L 313.200 329.200 293.800 329.200 L 274.400 329.200 274.400 340.800 M336.894 340.700 L 337.000 352.200 356.700 352.304 L 376.400 352.408 376.400 340.804 L 376.400 329.200 356.594 329.200 L 336.788 329.200 336.894 340.700 " stroke="none" fill="#c4cce4" fill-rule="evenodd"></path><path id="path2" d="M23.385 94.900 C 23.281 95.175,23.241 142.650,23.298 200.400 L 23.400 305.400 200.000 305.400 L 376.600 305.400 376.600 200.000 L 376.600 94.600 200.088 94.500 C 59.087 94.419,23.537 94.500,23.385 94.900 M267.913 199.960 C 268.004 200.217,246.745 214.672,243.977 216.236 C 243.553 216.475,242.889 216.933,242.503 217.253 C 242.116 217.573,241.305 218.082,240.700 218.385 C 240.095 218.688,239.600 219.085,239.600 219.268 C 239.600 219.450,239.429 219.600,239.220 219.600 C 239.011 219.600,238.005 220.185,236.985 220.900 C 235.964 221.615,234.830 222.383,234.465 222.607 C 234.099 222.831,218.374 233.295,199.519 245.860 C 180.665 258.425,165.140 268.607,165.019 268.486 C 164.738 268.205,164.730 131.804,165.011 131.522 C 165.244 131.289,267.732 199.452,267.913 199.960 " stroke="none" fill="#f43c04" fill-rule="evenodd"></path><path id="path3" d="M23.600 59.400 L 23.600 70.800 43.200 70.800 L 62.800 70.800 62.800 59.400 L 62.800 48.000 43.200 48.000 L 23.600 48.000 23.600 59.400 M87.200 59.400 L 87.200 70.800 106.400 70.800 L 125.600 70.800 125.600 59.400 L 125.600 48.000 106.400 48.000 L 87.200 48.000 87.200 59.400 M149.600 59.400 L 149.600 70.800 168.800 70.800 L 188.000 70.800 188.000 59.400 L 188.000 48.000 168.800 48.000 L 149.600 48.000 149.600 59.400 M165.035 131.898 C 164.658 132.275,164.764 267.931,165.142 268.164 C 165.431 268.343,205.222 241.944,207.305 240.193 C 207.692 239.867,208.153 239.600,208.329 239.600 C 208.505 239.600,209.009 239.264,209.450 238.854 C 209.890 238.444,210.678 237.880,211.200 237.600 C 211.722 237.320,212.341 236.934,212.575 236.740 C 212.809 236.547,213.720 235.910,214.600 235.325 C 215.480 234.740,218.315 232.852,220.901 231.131 C 223.486 229.409,225.781 228.000,226.001 228.000 C 226.220 228.000,226.400 227.850,226.400 227.668 C 226.400 227.485,226.895 227.080,227.500 226.768 C 228.105 226.455,228.949 225.885,229.375 225.500 C 229.802 225.115,230.372 224.800,230.642 224.800 C 230.912 224.800,231.193 224.641,231.267 224.446 C 231.340 224.251,236.530 220.712,242.800 216.581 C 249.070 212.451,254.260 208.920,254.333 208.736 C 254.407 208.551,254.688 208.400,254.958 208.400 C 255.228 208.400,255.798 208.085,256.225 207.700 C 256.651 207.315,257.495 206.745,258.100 206.432 C 258.705 206.120,259.200 205.715,259.200 205.532 C 259.200 205.350,259.396 205.200,259.635 205.200 C 259.996 205.200,262.632 203.508,264.191 202.276 C 264.416 202.098,265.185 201.606,265.900 201.182 C 267.564 200.196,267.536 199.968,265.611 198.780 C 264.737 198.241,264.017 197.665,264.011 197.500 C 264.005 197.335,263.764 197.200,263.475 197.200 C 263.187 197.200,262.564 196.840,262.092 196.400 C 261.620 195.960,261.046 195.600,260.817 195.600 C 260.588 195.600,260.400 195.420,260.400 195.200 C 260.400 194.980,260.130 194.800,259.800 194.800 C 259.470 194.800,259.200 194.650,259.200 194.468 C 259.200 194.285,258.705 193.880,258.100 193.568 C 257.495 193.255,256.651 192.685,256.225 192.300 C 255.798 191.915,255.296 191.600,255.108 191.600 C 254.920 191.600,254.380 191.240,253.908 190.800 C 253.436 190.360,252.813 190.000,252.525 190.000 C 252.236 190.000,252.000 189.820,252.000 189.600 C 252.000 189.380,251.752 189.200,251.449 189.200 C 251.146 189.200,250.657 188.910,250.363 188.555 C 250.069 188.201,249.552 187.796,249.214 187.655 C 248.189 187.229,231.410 175.900,231.267 175.538 C 231.193 175.352,230.976 175.200,230.784 175.200 C 230.381 175.200,212.865 163.708,212.071 162.923 C 211.781 162.635,211.404 162.400,211.234 162.400 C 211.064 162.400,210.401 161.950,209.762 161.400 C 209.123 160.851,208.375 160.401,208.100 160.400 C 207.825 160.400,207.600 160.220,207.600 160.000 C 207.600 159.780,207.330 159.600,207.000 159.600 C 206.670 159.600,206.400 159.420,206.400 159.200 C 206.400 158.980,206.130 158.800,205.800 158.800 C 205.470 158.800,205.200 158.620,205.200 158.400 C 205.200 158.180,204.930 158.000,204.600 158.000 C 204.270 158.000,204.000 157.820,204.000 157.600 C 204.000 157.380,203.730 157.200,203.400 157.200 C 203.070 157.200,202.800 157.020,202.800 156.800 C 202.800 156.580,202.564 156.400,202.275 156.400 C 201.987 156.400,201.399 156.072,200.969 155.671 C 200.296 155.045,171.697 135.762,166.946 132.731 C 166.025 132.143,165.165 131.768,165.035 131.898 M23.600 340.600 L 23.600 352.000 43.200 352.000 L 62.800 352.000 62.800 340.600 L 62.800 329.200 43.200 329.200 L 23.600 329.200 23.600 340.600 M87.200 340.600 L 87.200 352.000 106.400 352.000 L 125.600 352.000 125.600 340.600 L 125.600 329.200 106.400 329.200 L 87.200 329.200 87.200 340.600 M149.600 340.600 L 149.600 352.000 168.800 352.000 L 188.000 352.000 188.000 340.600 L 188.000 329.200 168.800 329.200 L 149.600 329.200 149.600 340.600 " stroke="none" fill="#e3e8f6" fill-rule="evenodd"></path><path id="path4" d="M200.000 59.200 L 200.000 94.400 282.534 94.400 C 327.928 94.400,372.928 94.519,382.534 94.665 L 400.000 94.930 400.000 59.465 L 400.000 24.000 300.000 24.000 L 200.000 24.000 200.000 59.200 M250.567 47.443 C 251.124 47.657,251.200 49.090,251.200 59.435 L 251.200 71.185 250.300 71.403 C 249.805 71.524,240.940 71.572,230.600 71.511 L 211.800 71.400 211.694 59.805 C 211.635 53.428,211.675 47.983,211.781 47.705 C 211.985 47.173,249.209 46.922,250.567 47.443 M313.400 59.400 L 313.400 71.400 293.800 71.400 L 274.200 71.400 274.094 59.805 C 274.035 53.428,274.075 47.981,274.183 47.701 C 274.338 47.297,278.396 47.214,293.889 47.296 L 313.400 47.400 313.400 59.400 M376.600 59.400 L 376.600 71.400 357.400 71.511 C 346.840 71.572,337.795 71.523,337.300 71.403 L 336.400 71.185 336.400 59.426 C 336.400 50.394,336.516 47.619,336.900 47.463 C 337.175 47.351,346.220 47.291,357.000 47.330 L 376.600 47.400 376.600 59.400 M288.500 305.500 L 200.000 305.602 200.000 340.801 L 200.000 376.000 300.000 376.000 L 400.000 376.000 400.000 340.600 L 400.000 305.200 388.500 305.299 C 382.175 305.354,337.175 305.444,288.500 305.500 M251.106 340.700 L 251.000 352.600 231.300 352.704 L 211.600 352.808 211.600 340.804 L 211.600 328.800 231.406 328.800 L 251.212 328.800 251.106 340.700 M313.506 340.700 L 313.400 352.600 293.800 352.600 L 274.200 352.600 274.094 340.700 L 273.988 328.800 293.800 328.800 L 313.612 328.800 313.506 340.700 M376.706 340.700 L 376.600 352.600 356.600 352.600 L 336.600 352.600 336.494 340.700 L 336.388 328.800 356.600 328.800 L 376.812 328.800 376.706 340.700 " stroke="none" fill="#2c3464" fill-rule="evenodd"></path></g></svg>